<svg xmlns="http://www.w3.org/2000/svg" width="30" height="30" viewBox="0 0 30 30" fill="none">
  <path d="M28.4767 11.2559C28.3342 10.8192 28.0666 10.4339 27.707 10.1481C27.3474 9.86222 26.9117 9.68835 26.4541 9.64806L19.7744 9.07033L17.1611 2.84299C16.9813 2.4195 16.6809 2.05828 16.2973 1.80436C15.9136 1.55044 15.4637 1.41504 15.0037 1.41504C14.5436 1.41504 14.0937 1.55044 13.7101 1.80436C13.3264 2.05828 13.026 2.4195 12.8462 2.84299L10.2294 9.07033L3.54976 9.64806C3.08967 9.68616 2.65108 9.85929 2.28901 10.1457C1.92695 10.4322 1.65754 10.8191 1.51459 11.2581C1.37165 11.6971 1.36153 12.1685 1.48551 12.6132C1.60949 13.0579 1.86204 13.4561 2.21148 13.7578L7.28804 18.1875L5.76461 24.7781C5.66013 25.2269 5.69025 25.6966 5.85122 26.1283C6.01218 26.5601 6.29685 26.9348 6.66962 27.2056C7.04239 27.4765 7.48673 27.6315 7.94709 27.6512C8.40746 27.6709 8.86341 27.5544 9.25797 27.3164L15.0002 23.8289L20.7423 27.3164C21.1369 27.5541 21.5927 27.6702 22.0528 27.6503C22.513 27.6304 22.9571 27.4754 23.3296 27.2046C23.7022 26.9338 23.9867 26.5592 24.1476 26.1277C24.3086 25.6962 24.3388 25.2268 24.2345 24.7781L22.7111 18.1875L27.7877 13.7578C28.1362 13.455 28.3875 13.056 28.5101 12.6109C28.6327 12.1658 28.6211 11.6944 28.4767 11.2559ZM20.6544 16.2504C20.3331 16.53 20.094 16.8919 19.9629 17.2972C19.8317 17.7026 19.8136 18.1359 19.9103 18.5508L21.2451 24.3305L16.213 21.2742C15.8476 21.0517 15.428 20.934 15.0002 20.934C14.5723 20.934 14.1527 21.0517 13.7873 21.2742L8.75523 24.3305L10.09 18.5508C10.1867 18.1359 10.1686 17.7026 10.0374 17.2972C9.90633 16.8919 9.66724 16.53 9.34586 16.2504L4.88218 12.3563L10.758 11.8477C11.1835 11.8112 11.5908 11.6588 11.9357 11.4069C12.2805 11.155 12.5497 10.8134 12.7138 10.4192L15.0002 4.97111L17.2865 10.4192C17.4506 10.8134 17.7198 11.155 18.0647 11.4069C18.4095 11.6588 18.8169 11.8112 19.2423 11.8477L25.1181 12.3563L20.6544 16.2504Z" fill="white"/>
</svg>