<svg width="16" height="16" viewBox="0 0 16 16" fill="none" xmlns="http://www.w3.org/2000/svg">
<g clip-path="url(#clip0_449_2)">
<path d="M7.99984 5.33329C6.5265 5.33329 5.33317 6.52663 5.33317 7.99996C5.33317 9.47329 6.5265 10.6666 7.99984 10.6666C9.47317 10.6666 10.6665 9.47329 10.6665 7.99996C10.6665 6.52663 9.47317 5.33329 7.99984 5.33329ZM13.9598 7.33329C13.8088 5.98137 13.2026 4.72098 12.2407 3.75909C11.2788 2.79719 10.0184 2.19097 8.6665 2.03996V1.33329C8.6665 0.966626 8.3665 0.666626 7.99984 0.666626C7.63317 0.666626 7.33317 0.966626 7.33317 1.33329V2.03996C5.98125 2.19097 4.72086 2.79719 3.75897 3.75909C2.79707 4.72098 2.19085 5.98137 2.03984 7.33329H1.33317C0.966504 7.33329 0.666504 7.63329 0.666504 7.99996C0.666504 8.36663 0.966504 8.66663 1.33317 8.66663H2.03984C2.19085 10.0185 2.79707 11.2789 3.75897 12.2408C4.72086 13.2027 5.98125 13.809 7.33317 13.96V14.6666C7.33317 15.0333 7.63317 15.3333 7.99984 15.3333C8.3665 15.3333 8.6665 15.0333 8.6665 14.6666V13.96C10.0184 13.809 11.2788 13.2027 12.2407 12.2408C13.2026 11.2789 13.8088 10.0185 13.9598 8.66663H14.6665C15.0332 8.66663 15.3332 8.36663 15.3332 7.99996C15.3332 7.63329 15.0332 7.33329 14.6665 7.33329H13.9598ZM7.99984 12.6666C5.41984 12.6666 3.33317 10.58 3.33317 7.99996C3.33317 5.41996 5.41984 3.33329 7.99984 3.33329C10.5798 3.33329 12.6665 5.41996 12.6665 7.99996C12.6665 10.58 10.5798 12.6666 7.99984 12.6666Z" fill="white"/>
</g>
<defs>
<clipPath id="clip0_449_2">
<rect width="16" height="16" fill="white"/>
</clipPath>
</defs>
</svg>
