<svg xmlns="http://www.w3.org/2000/svg" width="16" height="16" viewBox="0 0 16 16" fill="none">
  <path d="M7.99984 14.3333C6.52206 14.3333 5.26362 13.8222 4.2245 12.8C3.18539 11.7777 2.66606 10.5333 2.6665 9.06663C2.6665 8.36663 2.80273 7.69729 3.07517 7.05863C3.34762 6.41996 3.73362 5.85596 4.23317 5.36663L7.99984 1.66663L11.7665 5.36663C12.2665 5.85552 12.6527 6.41952 12.9252 7.05863C13.1976 7.69774 13.3336 8.36707 13.3332 9.06663C13.3332 10.5333 12.8138 11.7777 11.7752 12.8C10.7365 13.8222 9.47806 14.3333 7.99984 14.3333ZM7.99984 13C9.11095 13 10.0554 12.6193 10.8332 11.858C11.6109 11.0966 11.9998 10.1662 11.9998 9.06663C11.9998 8.5444 11.8998 8.04729 11.6998 7.57529C11.4998 7.10329 11.2109 6.68929 10.8332 6.33329L7.99984 3.53329L5.1665 6.33329C4.78873 6.68885 4.49984 7.10285 4.29984 7.57529C4.09984 8.04774 3.99984 8.54485 3.99984 9.06663C3.99984 10.1666 4.38873 11.0973 5.1665 11.8586C5.94428 12.62 6.88873 13.0004 7.99984 13Z" fill="white"/>
</svg>
