<svg xmlns="http://www.w3.org/2000/svg" width="20" height="20" viewBox="0 0 20 20" fill="none">
  <path d="M17.465 12.7709C17.635 12.3659 17.1492 12.0209 16.7417 12.2009C15.9271 12.5584 15.047 12.7423 14.1575 12.7409C10.67 12.7409 7.84333 9.97088 7.84333 6.55338C7.84206 5.3995 8.16988 4.26919 8.78833 3.29505C9.025 2.92172 8.74083 2.40505 8.3075 2.51505C4.96667 3.36755 2.5 6.34422 2.5 9.88505C2.5 14.0909 5.97917 17.5 10.2717 17.5C13.5217 17.5 16.305 15.5459 17.465 12.7709Z" stroke="white" stroke-width="1.33333"/>
  <path d="M13.0089 2.58591C12.5673 2.29091 12.0406 2.81757 12.3348 3.25924L12.8598 4.04674C13.0727 4.36604 13.1864 4.74126 13.1864 5.12507C13.1864 5.50888 13.0727 5.8841 12.8598 6.20341L12.3348 6.99091C12.0406 7.43257 12.5681 7.95924 13.0098 7.66424L13.7964 7.13924C14.1157 6.92627 14.491 6.81261 14.8748 6.81261C15.2586 6.81261 15.6338 6.92627 15.9531 7.13924L16.7406 7.66424C17.1823 7.95924 17.7089 7.43257 17.4139 6.99091L16.8889 6.20341C16.676 5.8841 16.5623 5.50888 16.5623 5.12507C16.5623 4.74126 16.676 4.36604 16.8889 4.04674L17.4139 3.25924C17.7089 2.81757 17.1823 2.29091 16.7398 2.58591L15.9531 3.11091C15.6338 3.32388 15.2586 3.43753 14.8748 3.43753C14.491 3.43753 14.1157 3.32388 13.7964 3.11091L13.0089 2.58591Z" stroke="white" stroke-width="1.33333"/>
</svg>