<svg xmlns="http://www.w3.org/2000/svg" width="16" height="16" viewBox="0 0 16 16" fill="none">
  <path d="M8.00016 2.83333C7.69074 2.83333 7.394 2.95625 7.17521 3.17504C6.95641 3.39383 6.8335 3.69058 6.8335 4V9.26233L6.68083 9.38767C6.34825 9.65981 6.10796 10.0281 5.9929 10.4422C5.87784 10.8562 5.89363 11.2957 6.03811 11.7004C6.18259 12.1052 6.44869 12.4553 6.79995 12.7029C7.15121 12.9504 7.57043 13.0833 8.00016 13.0833C8.4299 13.0833 8.84912 12.9504 9.20038 12.7029C9.55163 12.4553 9.81774 12.1052 9.96222 11.7004C10.1067 11.2957 10.1225 10.8562 10.0074 10.4422C9.89237 10.0281 9.65208 9.65981 9.3195 9.38767L9.16683 9.26233V4C9.16683 3.84679 9.13665 3.69508 9.07802 3.55354C9.01939 3.41199 8.93346 3.28338 8.82512 3.17504C8.71679 3.06671 8.58817 2.98077 8.44663 2.92214C8.30508 2.86351 8.15337 2.83333 8.00016 2.83333ZM6.00016 4C6.00016 3.46957 6.21088 2.96086 6.58595 2.58579C6.96102 2.21071 7.46973 2 8.00016 2C8.5306 2 9.0393 2.21071 9.41438 2.58579C9.78945 2.96086 10.0002 3.46957 10.0002 4V8.877C10.4254 9.27764 10.7206 9.79677 10.8474 10.3671C10.9741 10.9375 10.9267 11.5328 10.7112 12.0758C10.4956 12.6189 10.122 13.0847 9.63861 13.4129C9.15524 13.7411 8.58443 13.9166 8.00016 13.9166C7.41589 13.9166 6.84509 13.7411 6.36172 13.4129C5.87835 13.0847 5.5047 12.6189 5.28918 12.0758C5.07366 11.5328 5.02621 10.9375 5.15298 10.3671C5.27975 9.79677 5.57489 9.27764 6.00016 8.877V4ZM9.3335 11C9.33348 11.2457 9.26557 11.4866 9.13729 11.6961C9.009 11.9056 8.82531 12.0757 8.6065 12.1874C8.38769 12.2991 8.14226 12.3482 7.89731 12.3293C7.65236 12.3103 7.4174 12.224 7.21838 12.08C7.01936 11.9359 6.86401 11.7397 6.76948 11.5129C6.67495 11.2861 6.64491 11.0377 6.68268 10.7949C6.72045 10.5521 6.82457 10.3245 6.98353 10.1372C7.14249 9.94988 7.35012 9.81011 7.5835 9.73333V6.08333C7.5835 5.97283 7.6274 5.86685 7.70554 5.78871C7.78368 5.71057 7.88966 5.66667 8.00016 5.66667C8.11067 5.66667 8.21665 5.71057 8.29479 5.78871C8.37293 5.86685 8.41683 5.97283 8.41683 6.08333V9.73333C8.68347 9.82116 8.91561 9.99086 9.08019 10.2183C9.24478 10.4457 9.33342 10.7193 9.3335 11Z" fill="white"/>
</svg>