<svg xmlns="http://www.w3.org/2000/svg" width="16" height="16" viewBox="0 0 16 16" fill="none">
  <path d="M11.8002 5.13328C11.9953 4.94539 12.2333 4.80789 12.4935 4.7327C12.7538 4.6575 13.0284 4.64687 13.2937 4.70173C13.559 4.7566 13.8069 4.87529 14.016 5.04755C14.225 5.2198 14.389 5.44042 14.4936 5.6903C14.5982 5.94018 14.6403 6.2118 14.6163 6.48162C14.5923 6.75145 14.5028 7.01135 14.3558 7.23883C14.2087 7.46631 14.0083 7.65451 13.7721 7.78713C13.5359 7.91975 13.271 7.9928 13.0002 7.99995H1.3335M6.40016 3.06662C6.55462 2.90909 6.74574 2.79234 6.95642 2.72685C7.16709 2.66136 7.39072 2.64917 7.60726 2.69137C7.8238 2.73357 8.02649 2.82884 8.19716 2.96864C8.36782 3.10845 8.50113 3.28842 8.58513 3.49241C8.66913 3.69641 8.7012 3.91807 8.67846 4.13751C8.65572 4.35695 8.57888 4.56732 8.45484 4.74976C8.33079 4.9322 8.16342 5.08101 7.96771 5.18285C7.77201 5.2847 7.55409 5.33638 7.3335 5.33328H1.3335M8.40016 12.9333C8.55462 13.0908 8.74574 13.2076 8.95642 13.273C9.16709 13.3385 9.39072 13.3507 9.60726 13.3085C9.82381 13.2663 10.0265 13.1711 10.1972 13.0313C10.3678 12.8915 10.5011 12.7115 10.5851 12.5075C10.6691 12.3035 10.7012 12.0818 10.6785 11.8624C10.6557 11.6429 10.5789 11.4326 10.4548 11.2501C10.3308 11.0677 10.1634 10.9189 9.96771 10.817C9.77201 10.7152 9.55409 10.6635 9.3335 10.6666H1.3335" stroke="white" stroke-width="1.33333" stroke-linecap="round" stroke-linejoin="round"/>
</svg>